<?xml version="1.0" standalone="no"?>
<!DOCTYPE svg PUBLIC "-//W3C//DTD SVG 20010904//EN"
 "http://www.w3.org/TR/2001/REC-SVG-20010904/DTD/svg10.dtd">
<svg version="1.0" xmlns="http://www.w3.org/2000/svg"
 width="64.000000pt" height="64.000000pt" viewBox="0 0 64.000000 64.000000"
 preserveAspectRatio="xMidYMid meet">
<g transform="translate(0.000000,64.000000) scale(0.100000,-0.100000)" stroke="none">
<path d="M12 628 c-17 -17 -17 -599 0 -616 17 -17 599 -17 616 0 17 17 17 599
0 616 -17 17 -599 17 -616 0z m178 -233 c0 -3 -16 -29 -35 -58 l-35 -52 32 -5
c21 -3 34 -11 36 -22 3 -16 -5 -18 -67 -18 -39 0 -71 2 -71 5 0 3 16 29 35 58
l35 52 -25 3 c-14 2 -30 12 -35 23 -10 18 -7 19 60 19 38 0 70 -2 70 -5z m106
-16 l22 -21 11 21 c7 12 21 21 31 21 25 0 25 -5 -1 -47 l-22 -35 22 -28 c11
-16 21 -34 21 -40 0 -19 -28 -10 -48 15 l-20 25 -16 -25 c-17 -25 -46 -34 -46
-14 0 6 9 24 21 40 l20 29 -25 37 -26 38 0 -53 c0 -54 -13 -92 -30 -92 -6 0
-10 26 -10 57 0 86 45 120 96 72z m134 -50 c0 -29 5 -39 20 -44 25 -8 50 10
50 37 0 13 6 18 18 16 21 -5 19 -44 -5 -70 -16 -18 -68 -24 -89 -10 -21 14
-34 51 -34 98 0 46 0 47 20 29 13 -12 20 -31 20 -56z m135 46 c20 -19 25 -34
25 -76 0 -51 0 -52 -19 -34 -11 9 -21 33 -23 54 -3 31 -7 36 -29 39 -22 3 -29
-2 -37 -27 -14 -38 -32 -40 -32 -3 0 32 8 45 35 60 31 18 54 14 80 -13z"/>
</g>
</svg>